<?xml version="1.0" encoding="UTF-8" standalone="no"?>
<svg
   xmlns:dc="http://purl.org/dc/elements/1.1/"
   xmlns:cc="http://creativecommons.org/ns#"
   xmlns:rdf="http://www.w3.org/1999/02/22-rdf-syntax-ns#"
   xmlns:svg="http://www.w3.org/2000/svg"
   xmlns="http://www.w3.org/2000/svg"
   xmlns:sodipodi="http://sodipodi.sourceforge.net/DTD/sodipodi-0.dtd"
   xmlns:inkscape="http://www.inkscape.org/namespaces/inkscape"
   width="16"
   height="16"
   fill="currentColor"
   class="bi bi-cloud"
   viewBox="0 0 16 16"
   version="1.1"
   id="svg4"
   sodipodi:docname="cloud.svg"
   inkscape:version="1.0.1 (3bc2e813f5, 2020-09-07)">
  <metadata
     id="metadata10">
    <rdf:RDF>
      <cc:Work
         rdf:about="">
        <dc:format>image/svg+xml</dc:format>
        <dc:type
           rdf:resource="http://purl.org/dc/dcmitype/StillImage" />
      </cc:Work>
    </rdf:RDF>
  </metadata>
  <defs
     id="defs8" />
  <sodipodi:namedview
     pagecolor="#ffffff"
     bordercolor="#666666"
     borderopacity="1"
     objecttolerance="10"
     gridtolerance="10"
     guidetolerance="10"
     inkscape:pageopacity="0"
     inkscape:pageshadow="2"
     inkscape:window-width="1920"
     inkscape:window-height="1017"
     id="namedview6"
     showgrid="false"
     inkscape:zoom="53.125"
     inkscape:cx="8"
     inkscape:cy="8"
     inkscape:window-x="-8"
     inkscape:window-y="-8"
     inkscape:window-maximized="1"
     inkscape:current-layer="svg4" />
  <path
     d="M4.406 3.342A5.53 5.53 0 0 1 8 2c2.69 0 4.923 2 5.166 4.579C14.758 6.804 16 8.137 16 9.773 16 11.569 14.502 13 12.687 13H3.781C1.708 13 0 11.366 0 9.318c0-1.763 1.266-3.223 2.942-3.593.143-.863.698-1.723 1.464-2.383zm.653.757c-.757.653-1.153 1.44-1.153 2.056v.448l-.445.049C2.064 6.805 1 7.952 1 9.318 1 10.785 2.23 12 3.781 12h8.906C13.98 12 15 10.988 15 9.773c0-1.216-1.02-2.228-2.313-2.228h-.5v-.5C12.188 4.825 10.328 3 8 3a4.53 4.53 0 0 0-2.941 1.1z"
     id="path2" />
  <path
     style="fill:#ffffff;stroke-width:0.0188235"
     d="M 3.5011765,11.977652 C 2.2755506,11.843713 1.3123815,10.99253 1.0590505,9.8194692 1.0117042,9.6002298 1.0123223,9.032724 1.0601507,8.8094118 1.1975673,8.1678089 1.5568642,7.6065378 2.0831044,7.2114174 2.5236242,6.8806588 3.0007925,6.7042528 3.6141176,6.6454114 c 0.1190589,-0.011422 0.2345081,-0.02463 0.256554,-0.029349 0.038734,-0.00829 0.04041,-0.020466 0.049798,-0.3617334 0.010856,-0.3946567 0.039221,-0.5457579 0.1549183,-0.825253 0.4526098,-1.0933896 1.6699872,-2.0355373 2.9906663,-2.3145245 0.9801389,-0.2070497 1.9382846,-0.094744 2.806887,0.3289992 1.2936538,0.6311024 2.1450538,1.8362379 2.2862238,3.2360907 0.01081,0.1072147 0.01966,0.3453207 0.01966,0.5291247 v 0.334189 l 0.4,0.010879 c 0.557988,0.015177 0.829885,0.076644 1.203847,0.2721536 1.344139,0.7027225 1.612594,2.4472733 0.5385,3.4994313 -0.317487,0.311002 -0.68197,0.505472 -1.163524,0.620795 -0.133751,0.03203 -0.389685,0.03394 -4.8658823,0.03622 -2.5985882,0.0013 -4.7543529,-8.27e-4 -4.7905882,-0.0048 z"
     id="path12" />
</svg>
