<svg xmlns="http://www.w3.org/2000/svg" version="1.1" xmlns:xlink="http://www.w3.org/1999/xlink" xmlns:svgjs="http://svgjs.com/svgjs" width="1820" height="150" preserveAspectRatio="none" viewBox="0 0 1820 150"><g mask="url(&quot;#SvgjsMask1007&quot;)" fill="none"><rect width="1820" height="150" x="0" y="0" fill="rgba(0, 0, 0, 1)"></rect><path d="M0 4.38C11.19 3.2 23.71 35.25 38 34C48.69 33.06 38.93 9.87 49.96 0C57.93 -7.13 62.98 0 76 0C95 0 95 0 114 0C133 0 133 0 152 0C171 0 171 0 190 0C209 0 209 0 228 0C247 0 247 0 266 0C282.34 0 296.91 -7.99 298.68 0C301.13 11.01 272.84 25.03 274.44 38C275.5 46.64 289.34 43.22 304 43.22C313.62 43.22 321.21 45.26 323 38C326.53 23.65 309.06 11.16 314.64 0C318.56 -7.84 328.32 0 342 0C361 0 361 0 380 0C397.82 0 415.63 -6.44 415.63 0C415.63 8.37 399.44 17.8 380 29.61C368.17 36.8 353.08 33.24 353.08 38C353.08 42.91 365.94 46.94 380 48.95C398.4 51.58 399.88 51 418 47.27C426.48 45.52 432.76 45.29 433.2 38C434.19 21.65 414.8 10.11 420.87 0C426.2 -8.89 438.43 0 456 0C475 0 475 0 494 0C504.96 0 507.45 -4.9 515.92 0C526.45 6.1 524.63 22 532 22C538.82 22 534.89 5.44 544.29 0C553.89 -5.56 557.14 0 570 0C589 0 589 0 608 0C627 0 627 0 646 0C656.86 0 658.96 -4.5 667.71 0C677.96 5.27 673.68 18.98 684 19.54C700.82 20.46 703.44 11.87 722 2.97C723.81 2.1 722.79 0.15 724.75 0C741.79 -1.33 742.38 0 760 0C779 0 779 0 798 0C817 0 817 0 836 0C855 0 855 0 874 0C893 0 893 0 912 0C931 0 931 0 950 0C969 0 969 0 988 0C1007 0 1007 0 1026 0C1045 0 1045 0 1064 0C1083 0 1083 0 1102 0C1121 0 1121 0 1140 0C1151.64 0 1156.83 -7.02 1163.29 0C1174.33 11.98 1168.79 19.13 1175 38C1176.15 41.49 1174.69 43.91 1178 44.71C1195.19 48.85 1197.3 49.56 1216 47.87C1234.4 46.21 1252.19 45.94 1252.19 38C1252.19 28.75 1233.91 26 1216 13.48C1206.73 7 1197.83 3.74 1197.83 0C1197.83 -3 1206.91 0 1216 0C1235 0 1235 0 1254 0C1265.03 0 1268.68 -5.99 1276.06 0C1287.68 9.44 1285.77 30.87 1292 30.87C1297.72 30.87 1290.19 7.95 1299.97 0C1309.19 -7.49 1314.99 0 1330 0C1349 0 1349 0 1368 0C1377.5 0 1377.58 -0.85 1387 0C1396.58 0.86 1396.59 3.41 1406 3.41C1411.88 3.41 1411.62 0.53 1417.57 0C1430.62 -1.17 1430.78 0 1444 0C1463 0 1463 0 1482 0C1501 0 1501 0 1520 0C1539 0 1539 0 1558 0C1577 0 1577 0 1596 0C1615 0 1615 0 1634 0C1653 0 1653 0 1672 0C1691 0 1691 0 1710 0C1729 0 1729 0 1748 0C1767 0 1767 0 1786 0C1805 0 1814.5 -9.5 1824 0C1833.5 9.5 1824 19 1824 38C1824 57 1824 57 1824 76C1824 95 1824 95 1824 114C1824 133 1833.5 142.5 1824 152C1814.5 161.5 1805 152 1786 152C1771.13 152 1766.28 158.68 1756.26 152C1747.28 146.02 1756.87 127.75 1748 126.67C1733.74 124.93 1730.05 142.5 1710 146.37C1692.05 149.83 1689.35 139.29 1672 141.33C1665.44 142.1 1668.64 150.19 1662.19 152C1649.64 155.52 1648.1 152 1634 152C1615 152 1615 152 1596 152C1577 152 1577 152 1558 152C1539 152 1539 152 1520 152C1509.38 152 1508.7 154.53 1498.76 152C1489.7 149.7 1490.15 142.34 1482 142.34C1474.98 142.34 1476.13 150.04 1468.43 152C1457.13 154.87 1456.22 152 1444 152C1432.85 152 1431.11 156.07 1421.7 152C1412.11 147.86 1413.22 135.59 1406 135.59C1399.64 135.59 1402.71 148.47 1394.54 152C1383.71 156.68 1381.27 152 1368 152C1349 152 1349 152 1330 152C1311 152 1311 152 1292 152C1283.45 152 1279.51 157.64 1274.9 152C1263.99 138.64 1269.39 132.05 1260.95 114C1258.94 109.69 1257.83 107.29 1254 107.29C1248.98 107.29 1245.58 108.51 1243.25 114C1236.08 130.86 1244.15 139.24 1235 152C1230.53 158.24 1225.5 152 1216 152C1197 152 1197 152 1178 152C1159 152 1159 152 1140 152C1121 152 1121 152 1102 152C1091 152 1084.76 158.94 1080 152C1071.72 139.94 1081.63 131 1075.92 114C1073.63 107.18 1069.54 104.35 1064 104.35C1059.36 104.35 1058.13 108.23 1055.56 114C1047.52 132.05 1053.21 138.61 1042.79 152C1038.43 157.61 1034.39 152 1026 152C1016.74 152 1015.18 155.85 1007.49 152C996.18 146.35 996.14 133 988 133C981.65 133 986.61 147.94 978.5 152C967.61 157.44 964.25 152 950 152C931 152 931 152 912 152C893 152 893 152 874 152C855 152 855 152 836 152C817 152 817 152 798 152C779 152 779 152 760 152C742.72 152 742.31 153.2 725.45 152C723.31 151.85 724.13 149.65 722 149.29C703.41 146.13 702.68 144.1 684 144.96C673.13 145.46 673.69 150 662.89 152C654.69 153.52 654.44 152 646 152C630.8 152 630.78 152.35 615.6 152C611.78 151.91 611.63 151.12 608 151.12C607.44 151.12 607.8 151.99 607.21 152C588.8 152.43 588.61 152 570 152C551 152 551 152 532 152C513 152 513 152 494 152C475 152 475 152 456 152C439.98 152 438.75 154.69 423.96 152C419.75 151.23 421.49 145.09 418 145.09C413.08 145.09 413.25 150.89 407.14 152C394.25 154.34 393.57 152 380 152C361 152 361 152 342 152C323 152 323 152 304 152C285 152 285 152 266 152C247 152 247 152 228 152C209 152 209 152 190 152C171 152 171 152 152 152C135.06 152 134.07 154.09 118.11 152C115.07 151.6 116.26 149.33 114 147.02C97.69 130.33 95.43 131.82 80.98 114C76.43 108.4 81.92 101.13 76 100.18C60.43 97.68 57.14 104.86 38 107.09C19.14 109.28 10.17 117.34 0 109.02C-8.83 101.8 0 92.51 0 76C0 57 0 57 0 38C0 21.19 -7.81 5.2 0 4.38" stroke="rgba(51, 121, 194, 0.58)" stroke-width="2"></path><path d="M190 36.69C189.36 36.69 189 37.24 189 38C189 39.9 189.21 42 190 42C190.9 42 192.38 39.68 192.38 38C192.38 37.02 191.05 36.69 190 36.69" stroke="rgba(51, 121, 194, 0.58)" stroke-width="2"></path><path d="M950 30.4C945.78 30.4 941.67 34.05 941.67 38C941.67 42.25 945.77 46.81 950 46.81C954.34 46.81 958.81 42.24 958.81 38C958.81 34.04 954.35 30.4 950 30.4" stroke="rgba(51, 121, 194, 0.58)" stroke-width="2"></path><path d="M1026 15.44C1016.97 16.8 1015.97 27.88 1015.97 38C1015.97 43.36 1019.85 45.22 1026 46.4C1043.87 49.82 1048.22 39.84 1064 47.19C1079.98 54.64 1076.92 61.46 1089.51 76C1095.92 83.4 1096.26 91.07 1102 91.07C1107.21 91.07 1109.02 84.39 1111.4 76C1116.55 57.85 1119.99 55.37 1117.07 38C1115.29 27.45 1111.87 21.5 1102 20.16C1085.33 17.89 1082.64 31.94 1064 30.78C1044.64 29.58 1040.99 13.19 1026 15.44" stroke="rgba(51, 121, 194, 0.58)" stroke-width="2"></path><path d="M1330 29.09C1315.11 29.09 1313.42 32.2 1298.33 38C1294.42 39.5 1293.41 39.82 1292 43.7C1286.53 58.82 1284.57 60.88 1284.57 76C1284.57 80.88 1287.23 83.69 1292 83.69C1304.99 83.69 1307.46 82.16 1320.09 76C1326.46 72.89 1326.54 71.5 1330 65.14C1336.87 52.5 1340.75 50.19 1340.75 38C1340.75 32.17 1336.32 29.09 1330 29.09" stroke="rgba(51, 121, 194, 0.58)" stroke-width="2"></path><path d="M1482 19C1476.74 19 1474.42 27.75 1472.18 38C1468.19 56.25 1466.17 58.77 1469.53 76C1471.08 83.91 1476.26 88.28 1482 88.28C1486.98 88.28 1489.31 83.17 1490.97 76C1495.13 58.03 1496.48 55.98 1493.65 38C1491.99 27.48 1487.48 19 1482 19" stroke="rgba(51, 121, 194, 0.58)" stroke-width="2"></path><path d="M1710 37.22C1709.53 37.22 1709.61 37.64 1709.17 38C1690.61 53.3 1690.87 53.65 1672 68.54C1666.79 72.65 1661 72.17 1661 76C1661 79.92 1665.56 83.46 1672 84.04C1690.06 85.65 1691.77 83.84 1710 80.38C1712.96 79.82 1714.27 78.96 1714.38 76C1715.06 57.77 1713.67 56.53 1711.58 38C1711.48 37.14 1710.73 37.22 1710 37.22" stroke="rgba(51, 121, 194, 0.58)" stroke-width="2"></path><path d="M1786 11.3C1776.34 11.3 1765.84 26.67 1765.84 38C1765.84 45.9 1776.1 49.76 1786 49.76C1795 49.76 1803.64 45.66 1803.64 38C1803.64 26.43 1795.24 11.3 1786 11.3" stroke="rgba(51, 121, 194, 0.58)" stroke-width="2"></path><path d="M114 43.63C104.58 43.63 90.38 62.75 90.38 76C90.38 84.69 103.17 87.5 114 87.5C120.66 87.5 125.35 83.02 125.35 76C125.35 61.09 122.06 43.63 114 43.63" stroke="rgba(51, 121, 194, 0.58)" stroke-width="2"></path><path d="M760 40.11C752.75 40.11 739.81 61.25 739.81 76C739.81 84.01 751.1 85.64 760 85.64C764.78 85.64 767.18 81.63 767.18 76C767.18 58.86 766.44 40.11 760 40.11" stroke="rgba(51, 121, 194, 0.58)" stroke-width="2"></path><path d="M1406 72.59C1401.74 72.59 1397.13 73.43 1397.13 76C1397.13 79.29 1402.08 84.31 1406 84.31C1409.18 84.31 1411.32 79.57 1411.32 76C1411.32 73.71 1408.83 72.59 1406 72.59" stroke="rgba(51, 121, 194, 0.58)" stroke-width="2"></path><path d="M304 100.96C293.54 100.96 283.67 107.01 283.67 114C283.67 121.47 293.45 129.89 304 129.89C316.1 129.89 328.97 121.41 328.97 114C328.97 106.95 316.19 100.96 304 100.96" stroke="rgba(51, 121, 194, 0.58)" stroke-width="2"></path><path d="M950 113.3C949.41 113.3 948.88 113.66 948.88 114C948.88 114.32 949.41 114.62 950 114.62C950.88 114.62 951.81 114.33 951.81 114C951.81 113.67 950.87 113.3 950 113.3" stroke="rgba(51, 121, 194, 0.58)" stroke-width="2"></path><path d="M1330 90.25C1327.33 90.25 1325.06 102.73 1325.06 114C1325.06 117.62 1327.42 120.03 1330 120.03C1332.77 120.03 1335.76 117.79 1335.76 114C1335.76 102.9 1332.68 90.25 1330 90.25" stroke="rgba(51, 121, 194, 0.58)" stroke-width="2"></path><path d="M1520 108.3C1515.63 108.3 1511.86 110.21 1511.86 114C1511.86 120.41 1515.07 128.71 1520 128.71C1525.84 128.71 1533.41 119.89 1533.41 114C1533.41 109.69 1526.41 108.3 1520 108.3" stroke="rgba(51, 121, 194, 0.58)" stroke-width="2"></path><path d="M0 117.95C10.04 109.96 21.9 113.75 38 121.79C56.01 130.78 68.21 143.15 68.21 152C68.21 158.26 53.1 152 38 152C19 152 10.02 160.98 0 152C-8.98 143.95 -8.96 125.07 0 117.95" stroke="rgba(51, 121, 194, 0.58)" stroke-width="2"></path><path d="M0 16.56C7.56 16.56 14.83 25.43 24.96 38C33.83 49.01 30.53 63.71 38 63.71C46.16 63.71 49.67 52.1 56.21 38C64.45 20.25 59.4 15.67 67.56 0C69.3 -3.33 71.78 0 76 0C95 0 95 0 114 0C125.47 0 126.63 -3.29 136.93 0C145.63 2.78 144.36 12.14 152 12.14C159.99 12.14 159.05 2.92 168.19 0C178.05 -3.15 179.1 0 190 0C201.55 0 213.1 -4.36 213.1 0C213.1 5.8 200.62 9.29 190 20.31C182.32 28.29 178.01 27.78 176.5 38C173.9 55.62 176.49 58.51 181.78 76C183.24 80.81 185.17 80.63 190 82.61C208.28 90.13 210.96 96.98 228 95C239.46 93.67 236.85 84.74 247 76C255.85 68.38 255.13 64.98 266 62.28C283.63 57.9 285.04 62.88 304 61.84C323.04 60.8 323.11 57.32 342 58.12C361.11 58.93 360.94 61.96 380 65.05C398.94 68.12 400.57 74.86 418 70.44C438.57 65.22 439.6 44.23 456 45.76C469.49 47.01 477.79 61.59 477.79 76C477.79 88.29 468.34 89.43 456 99.16C444.25 108.43 442.31 105.86 429.61 114C423.31 118.03 424.47 119.78 418 123.5C399.67 134.03 397.62 131.35 380 142.5C375.1 145.6 378.21 150.69 372.96 152C359.21 155.44 357.48 152 342 152C323 152 323 152 304 152C299.57 152 295.13 153.13 295.13 152C295.13 150.71 299.5 149.45 304 147.16C322.93 137.51 323.83 138.94 342 128.11C351.65 122.36 359.64 121.47 359.64 114C359.64 105.9 352.68 102.2 342 96.97C324.86 88.59 322.49 85.21 304 86.78C284.49 88.44 283.85 93.43 266 103.44C259.57 107.04 257.36 107.17 255.44 114C250.53 131.45 260.71 140.4 252.34 152C246.99 159.4 240.17 152 228 152C209 152 209 152 190 152C171 152 171 152 152 152C141.48 152 139.34 156.54 130.95 152C120.34 146.26 122.93 141.31 114 131.44C105.73 122.31 96.56 122.24 96.56 114C96.56 106.52 105.8 107.58 114 100C126.36 88.58 135.08 90.19 137.69 76C140.78 59.19 133.53 55.93 125.4 38C121.69 29.81 120.45 23.75 114 23.75C106.07 23.75 104.27 29.85 96.65 38C85.27 50.17 87.91 52.98 76 64.39C68.09 71.98 66.72 70.6 57 76C47.72 81.15 48.08 82.42 38 85.5C19.58 91.14 13.11 96.72 0 93.44C-5.89 91.97 0 84.72 0 76C0 57 0 57 0 38C0 27.28 -4.92 16.56 0 16.56" stroke="rgba(51, 121, 194, 0.58)" stroke-width="2"></path><path d="M222.06 38C222.06 33.98 224.91 30.4 228 30.4C231.27 30.4 234.79 33.93 234.79 38C234.79 43.01 231.24 48.56 228 48.56C224.87 48.56 222.06 43.06 222.06 38" stroke="rgba(51, 121, 194, 0.58)" stroke-width="2"></path><path d="M266 16.68C257.57 16.68 248 4.81 248 0C248 -3.53 257 0 266 0C272.84 0 279.68 -3.24 279.68 0C279.68 5.1 273.41 16.68 266 16.68" stroke="rgba(51, 121, 194, 0.58)" stroke-width="2"></path><path d="M380 17.27C365.01 17.27 348.33 4.6 348.33 0C348.33 -4.04 364.16 0 380 0C390.39 0 400.78 -3.75 400.78 0C400.78 4.88 391.23 17.27 380 17.27" stroke="rgba(51, 121, 194, 0.58)" stroke-width="2"></path><path d="M456 26.82C444.48 26.06 438.79 8.71 438.79 0C438.79 -4.7 447.39 0 456 0C475 0 475 0 494 0C495.83 0 497.65 -0.76 497.65 0C497.65 1.07 496.16 2.26 494 3.65C475.34 15.67 472.09 27.88 456 26.82" stroke="rgba(51, 121, 194, 0.58)" stroke-width="2"></path><path d="M549.1 38C545.36 23.4 550.22 14.61 558.26 0C560.67 -4.39 564.13 0 570 0C589 0 589 0 608 0C626.38 0 626.73 -0.72 644.77 0C645.73 0.04 645.4 0.75 646 1.52C660.26 19.75 659.32 20.73 674.5 38C678.32 42.35 679.47 44.76 684 44.76C687.84 44.76 687.21 40.86 691.24 38C706.21 27.38 707.76 29.25 722 17.81C731.4 10.25 728.44 4.73 738.52 0C747.44 -4.18 749.26 0 760 0C779 0 779 0 798 0C817 0 817 0 836 0C853.41 0 854.26 -1.74 870.83 0C873.26 0.26 872.03 4 874 4C877.07 4 877.03 0.41 880.91 0C896.03 -1.59 896.45 0 912 0C931 0 931 0 950 0C969 0 969 0 988 0C992.75 0 996.03 -3.77 997.5 0C1003.42 15.23 994.82 21.95 1002.78 38C1009.07 50.67 1012.49 52.03 1026 57.44C1043.1 64.29 1047.01 56.21 1064 62.52C1071.98 65.49 1075.94 69.28 1075.94 76C1075.94 82.66 1069.91 82.58 1064 89.27C1053.12 101.58 1051.45 100.46 1042.36 114C1032.45 128.75 1036.78 145.84 1026 145.84C1012.24 145.84 1009.85 129.68 993.28 114C990.85 111.7 991.07 111.17 988 109.87C969.43 102.02 967.43 105.43 950 95.7C937.11 88.5 927.36 85.18 927.36 76C927.36 67.62 939.56 69.35 950 60.58C962.17 50.35 972.58 48.87 972.58 38C972.58 27.84 961.15 18.52 950 18.52C939.19 18.52 938.13 27.21 928.66 38C919.13 48.87 923.81 55.77 912 61.84C896.48 69.82 892.91 63.33 874 66.09C854.91 68.87 854.31 68.41 836 72.92C834.19 73.36 834.25 74.17 833.76 76C828.74 94.71 824.19 96.29 824.97 114C825.31 121.63 830.43 126.67 836 126.67C841.65 126.67 841.7 120.33 847.4 114C860.7 99.22 858.33 87.17 874 84.44C890.63 81.54 894.5 91.72 912 102.74C917.97 106.5 915.21 109.86 920.94 114C934.21 123.59 937.48 119.78 950 130.2C960.32 138.78 966.63 145.22 966.63 152C966.63 156.12 958.32 152 950 152C934.54 152 930.55 157.74 919.07 152C911.55 148.24 915.37 133 912 133C908.67 133 913.03 148.32 905.67 152C894.03 157.82 889.84 152 874 152C855 152 855 152 836 152C817 152 817 152 798 152C779 152 779 152 760 152C757.12 152 756.58 153.56 754.24 152C737.58 140.9 739.42 137.09 722 126.67C707.66 118.09 706.34 120.38 690.71 114C687.34 112.62 687.41 112.42 684 111.15C665.06 104.08 663.59 96.45 646 97.32C634.82 97.87 636.32 105.77 626.46 114C617.32 121.62 616.5 120.75 608 129.02C596.98 139.75 599.56 144.66 587.42 152C580.56 156.15 578.71 152 570 152C557.7 152 556.99 154.53 545.41 152C537.99 150.38 538.11 143.71 532 143.71C527.67 143.71 529.61 150.89 524.52 152C510.61 155.03 509.26 152 494 152C475 152 475 152 456 152C449.29 152 442.59 155.12 442.59 152C442.59 147.16 446.98 139.98 456 136.09C472.69 128.89 476.84 136.72 494 129.83C504.37 125.67 502.75 122.15 511.05 114C521.75 103.48 519.5 93.92 532 92.5C548.98 90.57 554.22 111.48 570 107.29C585.31 103.23 582.2 91.73 594.18 76C601.2 66.78 600.39 66.09 608 57.39C617 47.09 627.39 47.41 627.39 38C627.39 29.08 618.34 20.73 608 20.73C595.45 20.73 594.76 29.29 581.61 38C575.76 41.87 576.27 45.89 570 45.89C560.02 45.89 551.23 46.34 549.1 38" stroke="rgba(51, 121, 194, 0.58)" stroke-width="2"></path><path d="M760 23.52C750.8 23.52 751.25 29.95 744.28 38C732.25 51.87 733.49 52.98 722 67.36C718.31 71.98 713.91 71.11 713.91 76C713.91 83.34 714.76 88.09 722 91.83C737.81 100 744.21 104.31 760 99.82C772.07 96.39 770.21 88.74 777.73 76C788.45 57.83 801.08 51.62 796.48 38C792.22 25.38 776.9 23.52 760 23.52" stroke="rgba(51, 121, 194, 0.58)" stroke-width="2"></path><path d="M1064 18.76C1048.86 18.58 1034.94 5.1 1034.94 0C1034.94 -4.28 1049.47 0 1064 0C1083 0 1083 0 1102 0C1104.72 0 1107.43 -0.19 1107.43 0C1107.43 0.2 1104.51 -0.3 1102 0.78C1082.79 9.08 1082.39 18.97 1064 18.76" stroke="rgba(51, 121, 194, 0.58)" stroke-width="2"></path><path d="M1133.45 38C1136.97 26.2 1135.96 14.25 1140 14.25C1144.23 14.25 1144.29 26.46 1150 38C1159.56 57.34 1160.1 57.1 1170.54 76C1174.1 82.43 1173.88 88.67 1178 88.67C1182.47 88.67 1181.45 80.7 1187.72 76C1200.45 66.47 1200.97 65.83 1216 60.21C1234.11 53.44 1238.07 46.86 1254 51.22C1266.9 54.75 1263.3 64.07 1273.66 76C1282.3 85.96 1282.54 85.8 1292 95C1302.07 104.8 1303.08 103.82 1312.73 114C1322.08 123.87 1320.96 135.11 1330 135.11C1339.67 135.11 1342.13 126 1350.15 114C1361.13 97.59 1355.89 78.3 1368 78.3C1383.82 78.3 1402.97 94.49 1406 114C1408.7 131.34 1394.69 136.77 1379.46 152C1375.69 155.77 1373.73 152 1368 152C1349 152 1349 152 1330 152C1314.8 152 1314.13 154.08 1299.6 152C1295.13 151.36 1294.67 150.32 1292 146.57C1281.14 131.32 1283.86 129.02 1272.54 114C1264.86 103.8 1264.21 96.12 1254 96.12C1240.6 96.12 1235.04 101.53 1225.32 114C1216.04 125.91 1221.13 129.62 1216 144.88C1214.74 148.62 1216.09 151.34 1212.55 152C1197.09 154.9 1195.28 152 1178 152C1162.16 152 1150.33 160.36 1146.33 152C1141.24 141.36 1161.82 130.1 1159.83 114C1158.65 104.49 1148.33 109.06 1140 100.78C1129.22 90.06 1123.04 89.71 1121.61 76C1119.77 58.32 1127.77 57.07 1133.45 38" stroke="rgba(51, 121, 194, 0.58)" stroke-width="2"></path><path d="M1330 14.25C1321.97 14.25 1315.29 4.15 1315.29 0C1315.29 -2.98 1322.64 0 1330 0C1340.86 0 1351.71 -3.24 1351.71 0C1351.71 3.88 1340.18 14.25 1330 14.25" stroke="rgba(51, 121, 194, 0.58)" stroke-width="2"></path><path d="M1358.68 38C1358.68 29.44 1360.34 25.69 1368 22.06C1384 14.48 1387.11 19.37 1406 15.59C1425.11 11.76 1429.52 0.99 1444 6.84C1457.27 12.2 1458.94 21.38 1461.51 38C1464.29 55.96 1459.99 57.6 1454.69 76C1451.23 88 1449.93 98.8 1444 98.8C1437.74 98.8 1439.43 85.2 1430.32 76C1420.43 66 1419.18 61.48 1406 60.41C1388.02 58.95 1380.67 76.93 1368 70.93C1357.01 65.72 1358.68 53.87 1358.68 38" stroke="rgba(51, 121, 194, 0.58)" stroke-width="2"></path><path d="M1506.32 38C1501.53 17.64 1480.01 10.44 1483.77 0C1486.85 -8.56 1501.89 0 1520 0C1539 0 1539 0 1558 0C1577 0 1577 0 1596 0C1606.26 0 1607.24 -3.05 1616.52 0C1626.24 3.19 1624.62 12.49 1634 12.49C1647.46 12.49 1647.78 4.74 1662.19 0C1666.78 -1.51 1667.1 0 1672 0C1691 0 1691 0 1710 0C1729 0 1729 0 1748 0C1761.09 0 1774.18 -6.63 1774.18 0C1774.18 11.22 1764.47 31.12 1748 35.7C1732.38 40.04 1727.48 17.16 1710 17.84C1697.74 18.31 1699.53 28.23 1688.52 38C1680.53 45.09 1680.65 45.31 1672 51.57C1654.39 64.31 1636 63.47 1636 76C1636 88.84 1652.32 97.91 1672 102.31C1689.32 106.19 1692.92 100.8 1710 92.56C1720.2 87.64 1719.78 85.44 1726.56 76C1738.78 58.99 1733.39 43.32 1748 39.65C1763.11 35.86 1767.42 61.49 1786 61.07C1803.72 60.67 1818.05 52.68 1820.61 38C1823.37 22.14 1795.59 11.81 1796.64 0C1797.28 -7.19 1818.27 -7.95 1824 0C1831.95 11.05 1824 19 1824 38C1824 57 1824 57 1824 76C1824 90.89 1831.02 96.13 1824 105.78C1817.2 115.13 1796.36 110.27 1796.36 114C1796.36 117.68 1817.43 111.58 1824 120.61C1831.25 130.58 1832.6 144.9 1824 152C1813.6 160.6 1805 152 1786 152C1781.45 152 1777.39 155.65 1776.91 152C1774.91 136.65 1788.57 127 1781.04 114C1774.12 102.06 1763.19 102.13 1748 102.13C1740.74 102.13 1742.5 108.55 1736.13 114C1723.5 124.81 1724.71 132.19 1710 134.64C1692.64 137.53 1688.23 120.21 1672 124.67C1656.66 128.89 1660.98 141.85 1646.87 152C1641.98 155.52 1640.43 152 1634 152C1622.26 152 1620.16 156.47 1610.53 152C1601.16 147.65 1604.73 141.54 1596 134.36C1581.63 122.54 1580.44 123.62 1564.33 114C1561.44 112.28 1561.13 112.91 1558 111.67C1538.97 104.12 1536.87 107.1 1520 96.42C1508.69 89.26 1504.5 88.2 1501.64 76C1497.66 58.99 1510.47 55.64 1506.32 38" stroke="rgba(51, 121, 194, 0.58)" stroke-width="2"></path><path d="M1094.55 114C1095.1 109.39 1097.96 107.45 1102 107.45C1107.28 107.45 1110.5 108.49 1113.18 114C1121.35 130.77 1127.32 139.75 1123.71 152C1121.73 158.75 1112.86 152 1102 152C1099.34 152 1097.13 154.33 1096.67 152C1093.4 135.33 1092.44 131.67 1094.55 114" stroke="rgba(51, 121, 194, 0.58)" stroke-width="2"></path><path d="M1458.71 114C1458.71 108.22 1471.1 102.89 1482 102.89C1489.19 102.89 1494.89 108.29 1494.89 114C1494.89 119.96 1489.29 126.24 1482 126.24C1471.2 126.24 1458.71 119.89 1458.71 114" stroke="rgba(51, 121, 194, 0.58)" stroke-width="2"></path><path d="M0 130.29C12.44 128.37 19.74 137.11 38 146.15C41.67 147.97 43.85 150.29 43.85 152C43.85 153.21 40.92 152 38 152C19 152 12.09 158.91 0 152C-6.91 148.05 -6.56 131.3 0 130.29" stroke="rgba(51, 121, 194, 0.58)" stroke-width="2"></path><path d="M1442.35 152C1442.35 149.9 1443.14 146.57 1444 146.57C1444.87 146.57 1445.81 149.94 1445.81 152C1445.81 152.65 1444.9 152 1444 152C1443.18 152 1442.35 152.61 1442.35 152" stroke="rgba(51, 121, 194, 0.58)" stroke-width="2"></path><path d="M0 28.74C3.26 28.74 9.87 31.59 10.78 38C13.23 55.22 11.27 59.14 6.71 76C5.88 79.07 2.64 77.87 0 77.87C-0.71 77.87 0 76.94 0 76C0 57 0 57 0 38C0 33.37 -2.13 28.74 0 28.74" stroke="rgba(51, 121, 194, 0.58)" stroke-width="2"></path><path d="M114 6.79C106.45 6.79 97.48 1.76 97.48 0C97.48 -1.63 105.74 0 114 0C117.28 0 120.55 -1.39 120.55 0C120.55 2 117.99 6.79 114 6.79" stroke="rgba(51, 121, 194, 0.58)" stroke-width="2"></path><path d="M138.97 38C139.28 30.03 145.62 25.33 152 25.33C158.13 25.33 163.36 30.14 164 38C165.42 55.48 149.98 60.61 156.11 76C162.98 93.24 172.32 90.74 190 103.26C199.14 109.74 200.66 107.53 209.76 114C219.66 121.04 220.96 120.64 228 130.29C234.83 139.64 237.5 144.25 237.5 152C237.5 155.11 232.75 152 228 152C217.14 152 215.23 156.29 206.29 152C196.23 147.17 198.14 133.76 190 133.76C181.86 133.76 183.77 147.17 173.71 152C164.77 156.29 162.86 152 152 152C147.89 152 146.62 154.7 143.78 152C127.62 136.63 128.98 133.85 114 115.87C113.15 114.85 112.13 114.88 112.13 114C112.13 113.2 113.15 113.35 114 112.5C132.1 94.35 142.98 97.03 150.03 76C155.47 59.78 138.29 55.36 138.97 38" stroke="rgba(51, 121, 194, 0.58)" stroke-width="2"></path><path d="M190 3.93C187.86 3.93 185.78 1.13 185.78 0C185.78 -0.83 187.89 0 190 0C192.24 0 194.47 -0.84 194.47 0C194.47 1.12 192.21 3.93 190 3.93" stroke="rgba(51, 121, 194, 0.58)" stroke-width="2"></path><path d="M380 4.94C375.72 4.94 370.95 1.32 370.95 0C370.95 -1.15 375.48 0 380 0C382.97 0 385.94 -1.07 385.94 0C385.94 1.4 383.21 4.94 380 4.94" stroke="rgba(51, 121, 194, 0.58)" stroke-width="2"></path><path d="M608 3.45C597.75 3.45 586.89 0.87 586.89 0C586.89 -0.86 597.44 0 608 0C611.07 0 614.13 -0.8 614.13 0C614.13 0.92 611.37 3.45 608 3.45" stroke="rgba(51, 121, 194, 0.58)" stroke-width="2"></path><path d="M713.86 38C713.86 34.96 718.14 32.66 722 32.66C725.16 32.66 727.9 35.06 727.9 38C727.9 41.61 725.26 45.77 722 45.77C718.24 45.77 713.86 41.51 713.86 38" stroke="rgba(51, 121, 194, 0.58)" stroke-width="2"></path><path d="M760 8.44C754.92 8.44 752.29 2.52 752.29 0C752.29 -1.7 756.14 0 760 0C775.64 0 791.29 -2.07 791.29 0C791.29 2.15 774.42 8.44 760 8.44" stroke="rgba(51, 121, 194, 0.58)" stroke-width="2"></path><path d="M825.64 38C825.64 25.06 828.91 9.5 836 9.5C844.15 9.5 856.12 26.46 856.12 38C856.12 45.33 845.37 47.24 836 47.24C830.13 47.24 825.64 43.93 825.64 38" stroke="rgba(51, 121, 194, 0.58)" stroke-width="2"></path><path d="M894.27 38C894.27 33.52 905.21 26.43 912 26.43C915.89 26.43 915.64 32.49 915.64 38C915.64 40.89 914.74 43.22 912 43.22C904.05 43.22 894.27 41.91 894.27 38" stroke="rgba(51, 121, 194, 0.58)" stroke-width="2"></path><path d="M950 6.65C941.22 6.65 932.27 1.72 932.27 0C932.27 -1.61 941.13 0 950 0C957.6 0 965.2 -1.59 965.2 0C965.2 1.74 957.69 6.65 950 6.65" stroke="rgba(51, 121, 194, 0.58)" stroke-width="2"></path><path d="M986.35 38C988.04 36.17 987.19 33.25 988 33.25C988.81 33.25 987.77 36.32 989.58 38C1006.77 53.94 1005.77 57.3 1026 68.49C1040.13 76.3 1057.65 66.69 1058.3 76C1059.24 89.44 1043.28 94.71 1029.17 114C1027.13 116.79 1028.09 120.16 1026 120.16C1023.34 120.16 1023.09 116.79 1019.67 114C1004.09 101.32 1005.55 98.26 988 89.22C970.72 80.32 968.7 84.22 950 78.11C948.48 77.61 947.57 76.98 947.57 76C947.57 75.1 948.95 75.38 950 74.35C968.34 56.38 969.04 56.72 986.35 38" stroke="rgba(51, 121, 194, 0.58)" stroke-width="2"></path><path d="M1064 6.73C1058.57 6.73 1053.57 1.83 1053.57 0C1053.57 -1.54 1058.78 0 1064 0C1071 0 1078 -1.6 1078 0C1078 1.77 1070.79 6.73 1064 6.73" stroke="rgba(51, 121, 194, 0.58)" stroke-width="2"></path><path d="M1381.82 38C1381.82 32.88 1393.31 30.25 1406 27.77C1424.4 24.17 1427.6 22.1 1444 25.84C1450.01 27.21 1450.83 31.48 1450.83 38C1450.83 50.77 1452.92 62.39 1444 64.43C1430.5 67.51 1425.01 56.31 1406 48.23C1393.92 43.09 1381.82 43.11 1381.82 38" stroke="rgba(51, 121, 194, 0.58)" stroke-width="2"></path><path d="M1518.99 38C1517.34 18.61 1505.49 14.06 1505.86 0C1505.99 -4.94 1512.93 0 1520 0C1539 0 1539 0 1558 0C1577 0 1577 0 1596 0C1596.76 0 1596.9 -0.43 1597.52 0C1615.9 12.6 1614.62 15.14 1634 26.06C1648.34 34.14 1664.96 30.69 1664.96 38C1664.96 45.95 1650.09 48.48 1634 56.58C1615.61 65.83 1614.55 63.98 1596 72.7C1593.9 73.69 1594.76 74.94 1592.7 76C1575.76 84.73 1576.07 90.16 1558 92.29C1539.72 94.44 1537.62 90.83 1520 84.55C1514.78 82.69 1512.43 81.34 1512.31 76C1511.92 58.07 1520.57 56.61 1518.99 38" stroke="rgba(51, 121, 194, 0.58)" stroke-width="2"></path><path d="M1558 12.67C1545.93 12.67 1527.6 28.12 1527.6 38C1527.6 46.03 1544.01 48.48 1558 48.48C1564.45 48.48 1568.48 44.28 1568.48 38C1568.48 26.38 1566.37 12.67 1558 12.67" stroke="rgba(51, 121, 194, 0.58)" stroke-width="2"></path><path d="M1748 6.91C1735.01 6.91 1719.5 1.75 1719.5 0C1719.5 -1.7 1733.75 0 1748 0C1750.53 0 1753.07 -1.28 1753.07 0C1753.07 2.17 1751.8 6.91 1748 6.91" stroke="rgba(51, 121, 194, 0.58)" stroke-width="2"></path><path d="M1824 13.48C1821.74 13.48 1815.64 4.41 1815.64 0C1815.64 -2.33 1822.4 -2.58 1824 0C1826.58 4.16 1825.92 13.48 1824 13.48" stroke="rgba(51, 121, 194, 0.58)" stroke-width="2"></path><path d="M439.88 76C439.88 71.04 448.91 65.14 456 65.14C460.88 65.14 463.82 70.83 463.82 76C463.82 80.41 460.62 84.31 456 84.31C448.65 84.31 439.88 80.63 439.88 76" stroke="rgba(51, 121, 194, 0.58)" stroke-width="2"></path><path d="M651.43 76C651.43 70.65 669.02 65.87 684 65.87C690.16 65.87 693.7 70.79 693.7 76C693.7 81.56 690.39 87.4 684 87.4C669.26 87.4 651.43 81.41 651.43 76" stroke="rgba(51, 121, 194, 0.58)" stroke-width="2"></path><path d="M788.29 76C788.29 66.21 791.91 57.4 798 57.4C805.34 57.4 815.14 65.52 815.14 76C815.14 91.63 804.97 109.62 798 109.62C791.54 109.62 788.29 92.32 788.29 76" stroke="rgba(51, 121, 194, 0.58)" stroke-width="2"></path><path d="M1131.83 76C1131.83 65.72 1134.83 54.29 1140 54.29C1145.7 54.29 1153.57 66.28 1153.57 76C1153.57 82.64 1146.09 87.01 1140 87.01C1135.22 87.01 1131.83 82.08 1131.83 76" stroke="rgba(51, 121, 194, 0.58)" stroke-width="2"></path><path d="M1209.81 76C1209.81 73.24 1212.58 73.4 1216 72.55C1234.68 67.9 1236.85 63.72 1254 64.99C1260.22 65.45 1262.74 70.72 1262.74 76C1262.74 80.7 1259.75 83.22 1254 84.94C1236.38 90.22 1231.79 93.19 1216 90C1209.7 88.72 1209.81 81.96 1209.81 76" stroke="rgba(51, 121, 194, 0.58)" stroke-width="2"></path><path d="M1738.74 76C1738.74 68.51 1740.59 60.87 1748 60.3C1764.22 59.06 1766.57 69.98 1786 72.38C1804.57 74.67 1807.71 68.12 1824 69.67C1826.71 69.93 1824 72.84 1824 76C1824 78.06 1825.83 79.62 1824 80.11C1806.83 84.69 1805.11 84.33 1786 86.13C1767.11 87.91 1765.08 90.94 1748 87.28C1741.45 85.88 1738.74 82 1738.74 76" stroke="rgba(51, 121, 194, 0.58)" stroke-width="2"></path><path d="M523.23 114C523.23 109.15 526.75 105 532 105C541.2 105 552.12 108.83 552.12 114C552.12 119.55 540.79 126.44 532 126.44C526.34 126.44 523.23 119.87 523.23 114" stroke="rgba(51, 121, 194, 0.58)" stroke-width="2"></path><path d="M1284.12 114C1284.12 109.64 1288 106.31 1292 106.31C1296.13 106.31 1300.39 109.6 1300.39 114C1300.39 120.04 1296.1 127.18 1292 127.18C1287.97 127.18 1284.12 120.08 1284.12 114" stroke="rgba(51, 121, 194, 0.58)" stroke-width="2"></path><path d="M1364.55 114C1364.55 110.3 1365.66 107.09 1368 107.09C1371.06 107.09 1375.35 109.71 1375.35 114C1375.35 122.66 1370.77 133 1368 133C1365.37 133 1364.55 123.25 1364.55 114" stroke="rgba(51, 121, 194, 0.58)" stroke-width="2"></path><path d="M1621.33 114C1621.33 108.86 1627.62 107.21 1634 107.21C1640.74 107.21 1647.57 108.74 1647.57 114C1647.57 122.69 1640.62 135.11 1634 135.11C1627.5 135.11 1621.33 122.81 1621.33 114" stroke="rgba(51, 121, 194, 0.58)" stroke-width="2"></path><path d="M1684.21 114C1684.21 109.45 1697.91 104.74 1710 104.74C1716.44 104.74 1721.28 109.42 1721.28 114C1721.28 118.51 1716.4 122.91 1710 122.91C1697.86 122.91 1684.21 118.53 1684.21 114" stroke="rgba(51, 121, 194, 0.58)" stroke-width="2"></path><path d="M0 142.62C6.58 142.62 19 149.53 19 152C19 154.22 6.36 155.14 0 152C-3.14 150.45 -2.92 142.62 0 142.62" stroke="rgba(51, 121, 194, 0.58)" stroke-width="2"></path><path d="M464.58 152C464.58 149.2 480.04 141.14 494 141.14C502.23 141.14 508.95 149 508.95 152C508.95 154.43 501.48 152 494 152C479.29 152 464.58 154.63 464.58 152" stroke="rgba(51, 121, 194, 0.58)" stroke-width="2"></path><path d="M782.35 152C782.35 141.19 788.47 120.71 798 120.71C808.96 120.71 823.33 142.4 823.33 152C823.33 158.04 810.66 152 798 152C790.17 152 782.35 156.84 782.35 152" stroke="rgba(51, 121, 194, 0.58)" stroke-width="2"></path><path d="M848.09 152C848.09 142.93 863.58 122 874 122C882.48 122 885.88 141.04 885.88 152C885.88 156.04 879.94 152 874 152C861.05 152 848.09 157.93 848.09 152" stroke="rgba(51, 121, 194, 0.58)" stroke-width="2"></path><path d="M941.16 152C941.16 150.29 946.06 145.77 950 145.77C952.85 145.77 954.75 150.06 954.75 152C954.75 153.18 952.38 152 950 152C945.58 152 941.16 153.4 941.16 152" stroke="rgba(51, 121, 194, 0.58)" stroke-width="2"></path><path d="M1172.72 152C1172.72 142.24 1175.25 128.25 1178 128.25C1180.77 128.25 1183.76 142.39 1183.76 152C1183.76 154.27 1180.88 152 1178 152C1175.36 152 1172.72 154.12 1172.72 152" stroke="rgba(51, 121, 194, 0.58)" stroke-width="2"></path><path d="M1326.74 152C1326.74 151.52 1328.2 150.19 1330 150.19C1336.17 150.19 1342.67 151.55 1342.67 152C1342.67 152.45 1336.34 152 1330 152C1328.37 152 1326.74 152.42 1326.74 152" stroke="rgba(51, 121, 194, 0.58)" stroke-width="2"></path><path d="M1805.7 152C1805.7 149.12 1817.92 141.26 1824 141.26C1827.07 141.26 1827.38 150.01 1824 152C1818.23 155.38 1805.7 154.49 1805.7 152" stroke="rgba(51, 121, 194, 0.58)" stroke-width="2"></path></g><defs><mask id="SvgjsMask1007"><rect width="1820" height="150" fill="#ffffff"></rect></mask></defs></svg>