<svg xmlns="http://www.w3.org/2000/svg" version="1.1" xmlns:xlink="http://www.w3.org/1999/xlink" xmlns:svgjs="http://svgjs.com/svgjs" width="1920" height="200" preserveAspectRatio="none" viewBox="0 0 1920 200"><g mask="url(&quot;#SvgjsMask1015&quot;)" fill="none"><rect width="1920" height="200" x="0" y="0" fill="#0e2a47"></rect><path d="M42.44 -6.91L107.39 30.59L107.39 105.59L42.44 143.09L-22.51 105.59L-22.51 30.59zM42.44 218.09L107.39 255.59L107.39 330.59L42.44 368.09L-22.51 330.59L-22.51 255.59zM172.35 -6.91L237.3 30.59L237.3 105.59L172.35 143.09L107.39 105.59L107.39 30.59zM302.25 -6.91L367.21 30.59L367.21 105.59L302.25 143.09L237.3 105.59L237.3 30.59zM432.16 -6.91L497.12 30.59L497.12 105.59L432.16 143.09L367.21 105.59L367.21 30.59zM432.16 218.09L497.12 255.59L497.12 330.59L432.16 368.09L367.21 330.59L367.21 255.59zM627.02 105.59L691.98 143.09L691.98 218.09L627.02 255.59L562.07 218.09L562.07 143.09zM562.07 218.09L627.02 255.59L627.02 330.59L562.07 368.09L497.12 330.59L497.12 255.59zM691.98 -6.91L756.93 30.59L756.93 105.59L691.98 143.09L627.02 105.59L627.02 30.59zM756.93 105.59L821.88 143.09L821.88 218.09L756.93 255.59L691.98 218.09L691.98 143.09zM886.84 105.59L951.79 143.09L951.79 218.09L886.84 255.59L821.88 218.09L821.88 143.09zM1016.75 105.59L1081.7 143.09L1081.7 218.09L1016.75 255.59L951.79 218.09L951.79 143.09zM1081.7 218.09L1146.65 255.59L1146.65 330.59L1081.7 368.09L1016.75 330.59L1016.75 255.59zM1341.52 -6.91L1406.47 30.59L1406.47 105.59L1341.52 143.09L1276.56 105.59L1276.56 30.59zM1471.42 218.09L1536.38 255.59L1536.38 330.59L1471.42 368.09L1406.47 330.59L1406.47 255.59zM1731.24 218.09L1796.19 255.59L1796.19 330.59L1731.24 368.09L1666.28 330.59L1666.28 255.59zM1861.14 218.09L1926.1 255.59L1926.1 330.59L1861.14 368.09L1796.19 330.59L1796.19 255.59z" stroke="#03305d" stroke-width="2"></path><path d="M34.94 -6.91 a7.5 7.5 0 1 0 15 0 a7.5 7.5 0 1 0 -15 0zM99.89 30.59 a7.5 7.5 0 1 0 15 0 a7.5 7.5 0 1 0 -15 0zM99.89 105.59 a7.5 7.5 0 1 0 15 0 a7.5 7.5 0 1 0 -15 0zM34.94 143.09 a7.5 7.5 0 1 0 15 0 a7.5 7.5 0 1 0 -15 0zM-30.01 105.59 a7.5 7.5 0 1 0 15 0 a7.5 7.5 0 1 0 -15 0zM-30.01 30.59 a7.5 7.5 0 1 0 15 0 a7.5 7.5 0 1 0 -15 0zM34.94 218.09 a7.5 7.5 0 1 0 15 0 a7.5 7.5 0 1 0 -15 0zM99.89 255.59 a7.5 7.5 0 1 0 15 0 a7.5 7.5 0 1 0 -15 0zM99.89 330.59 a7.5 7.5 0 1 0 15 0 a7.5 7.5 0 1 0 -15 0zM34.94 368.09 a7.5 7.5 0 1 0 15 0 a7.5 7.5 0 1 0 -15 0zM-30.01 330.59 a7.5 7.5 0 1 0 15 0 a7.5 7.5 0 1 0 -15 0zM-30.01 255.59 a7.5 7.5 0 1 0 15 0 a7.5 7.5 0 1 0 -15 0zM164.85 -6.91 a7.5 7.5 0 1 0 15 0 a7.5 7.5 0 1 0 -15 0zM229.8 30.59 a7.5 7.5 0 1 0 15 0 a7.5 7.5 0 1 0 -15 0zM229.8 105.59 a7.5 7.5 0 1 0 15 0 a7.5 7.5 0 1 0 -15 0zM164.85 143.09 a7.5 7.5 0 1 0 15 0 a7.5 7.5 0 1 0 -15 0zM294.75 -6.91 a7.5 7.5 0 1 0 15 0 a7.5 7.5 0 1 0 -15 0zM359.71 30.59 a7.5 7.5 0 1 0 15 0 a7.5 7.5 0 1 0 -15 0zM359.71 105.59 a7.5 7.5 0 1 0 15 0 a7.5 7.5 0 1 0 -15 0zM294.75 143.09 a7.5 7.5 0 1 0 15 0 a7.5 7.5 0 1 0 -15 0zM424.66 -6.91 a7.5 7.5 0 1 0 15 0 a7.5 7.5 0 1 0 -15 0zM489.62 30.59 a7.5 7.5 0 1 0 15 0 a7.5 7.5 0 1 0 -15 0zM489.62 105.59 a7.5 7.5 0 1 0 15 0 a7.5 7.5 0 1 0 -15 0zM424.66 143.09 a7.5 7.5 0 1 0 15 0 a7.5 7.5 0 1 0 -15 0zM424.66 218.09 a7.5 7.5 0 1 0 15 0 a7.5 7.5 0 1 0 -15 0zM489.62 255.59 a7.5 7.5 0 1 0 15 0 a7.5 7.5 0 1 0 -15 0zM489.62 330.59 a7.5 7.5 0 1 0 15 0 a7.5 7.5 0 1 0 -15 0zM424.66 368.09 a7.5 7.5 0 1 0 15 0 a7.5 7.5 0 1 0 -15 0zM359.71 330.59 a7.5 7.5 0 1 0 15 0 a7.5 7.5 0 1 0 -15 0zM359.71 255.59 a7.5 7.5 0 1 0 15 0 a7.5 7.5 0 1 0 -15 0zM619.52 105.59 a7.5 7.5 0 1 0 15 0 a7.5 7.5 0 1 0 -15 0zM684.48 143.09 a7.5 7.5 0 1 0 15 0 a7.5 7.5 0 1 0 -15 0zM684.48 218.09 a7.5 7.5 0 1 0 15 0 a7.5 7.5 0 1 0 -15 0zM619.52 255.59 a7.5 7.5 0 1 0 15 0 a7.5 7.5 0 1 0 -15 0zM554.57 218.09 a7.5 7.5 0 1 0 15 0 a7.5 7.5 0 1 0 -15 0zM554.57 143.09 a7.5 7.5 0 1 0 15 0 a7.5 7.5 0 1 0 -15 0zM619.52 330.59 a7.5 7.5 0 1 0 15 0 a7.5 7.5 0 1 0 -15 0zM554.57 368.09 a7.5 7.5 0 1 0 15 0 a7.5 7.5 0 1 0 -15 0zM684.48 -6.91 a7.5 7.5 0 1 0 15 0 a7.5 7.5 0 1 0 -15 0zM749.43 30.59 a7.5 7.5 0 1 0 15 0 a7.5 7.5 0 1 0 -15 0zM749.43 105.59 a7.5 7.5 0 1 0 15 0 a7.5 7.5 0 1 0 -15 0zM619.52 30.59 a7.5 7.5 0 1 0 15 0 a7.5 7.5 0 1 0 -15 0zM814.38 143.09 a7.5 7.5 0 1 0 15 0 a7.5 7.5 0 1 0 -15 0zM814.38 218.09 a7.5 7.5 0 1 0 15 0 a7.5 7.5 0 1 0 -15 0zM749.43 255.59 a7.5 7.5 0 1 0 15 0 a7.5 7.5 0 1 0 -15 0zM879.34 105.59 a7.5 7.5 0 1 0 15 0 a7.5 7.5 0 1 0 -15 0zM944.29 143.09 a7.5 7.5 0 1 0 15 0 a7.5 7.5 0 1 0 -15 0zM944.29 218.09 a7.5 7.5 0 1 0 15 0 a7.5 7.5 0 1 0 -15 0zM879.34 255.59 a7.5 7.5 0 1 0 15 0 a7.5 7.5 0 1 0 -15 0zM1009.25 105.59 a7.5 7.5 0 1 0 15 0 a7.5 7.5 0 1 0 -15 0zM1074.2 143.09 a7.5 7.5 0 1 0 15 0 a7.5 7.5 0 1 0 -15 0zM1074.2 218.09 a7.5 7.5 0 1 0 15 0 a7.5 7.5 0 1 0 -15 0zM1009.25 255.59 a7.5 7.5 0 1 0 15 0 a7.5 7.5 0 1 0 -15 0zM1139.15 255.59 a7.5 7.5 0 1 0 15 0 a7.5 7.5 0 1 0 -15 0zM1139.15 330.59 a7.5 7.5 0 1 0 15 0 a7.5 7.5 0 1 0 -15 0zM1074.2 368.09 a7.5 7.5 0 1 0 15 0 a7.5 7.5 0 1 0 -15 0zM1009.25 330.59 a7.5 7.5 0 1 0 15 0 a7.5 7.5 0 1 0 -15 0zM1334.02 -6.91 a7.5 7.5 0 1 0 15 0 a7.5 7.5 0 1 0 -15 0zM1398.97 30.59 a7.5 7.5 0 1 0 15 0 a7.5 7.5 0 1 0 -15 0zM1398.97 105.59 a7.5 7.5 0 1 0 15 0 a7.5 7.5 0 1 0 -15 0zM1334.02 143.09 a7.5 7.5 0 1 0 15 0 a7.5 7.5 0 1 0 -15 0zM1269.06 105.59 a7.5 7.5 0 1 0 15 0 a7.5 7.5 0 1 0 -15 0zM1269.06 30.59 a7.5 7.5 0 1 0 15 0 a7.5 7.5 0 1 0 -15 0zM1463.92 218.09 a7.5 7.5 0 1 0 15 0 a7.5 7.5 0 1 0 -15 0zM1528.88 255.59 a7.5 7.5 0 1 0 15 0 a7.5 7.5 0 1 0 -15 0zM1528.88 330.59 a7.5 7.5 0 1 0 15 0 a7.5 7.5 0 1 0 -15 0zM1463.92 368.09 a7.5 7.5 0 1 0 15 0 a7.5 7.5 0 1 0 -15 0zM1398.97 330.59 a7.5 7.5 0 1 0 15 0 a7.5 7.5 0 1 0 -15 0zM1398.97 255.59 a7.5 7.5 0 1 0 15 0 a7.5 7.5 0 1 0 -15 0zM1723.74 218.09 a7.5 7.5 0 1 0 15 0 a7.5 7.5 0 1 0 -15 0zM1788.69 255.59 a7.5 7.5 0 1 0 15 0 a7.5 7.5 0 1 0 -15 0zM1788.69 330.59 a7.5 7.5 0 1 0 15 0 a7.5 7.5 0 1 0 -15 0zM1723.74 368.09 a7.5 7.5 0 1 0 15 0 a7.5 7.5 0 1 0 -15 0zM1658.78 330.59 a7.5 7.5 0 1 0 15 0 a7.5 7.5 0 1 0 -15 0zM1658.78 255.59 a7.5 7.5 0 1 0 15 0 a7.5 7.5 0 1 0 -15 0zM1853.64 218.09 a7.5 7.5 0 1 0 15 0 a7.5 7.5 0 1 0 -15 0zM1918.6 255.59 a7.5 7.5 0 1 0 15 0 a7.5 7.5 0 1 0 -15 0zM1918.6 330.59 a7.5 7.5 0 1 0 15 0 a7.5 7.5 0 1 0 -15 0zM1853.64 368.09 a7.5 7.5 0 1 0 15 0 a7.5 7.5 0 1 0 -15 0z" fill="#03305d"></path><path d="M13.52 -1.56L56.82 23.44L56.82 73.44L13.52 98.44L-29.78 73.44L-29.78 23.44zM56.82 73.44L100.13 98.44L100.13 148.44L56.82 173.44L13.52 148.44L13.52 98.44zM316.64 73.44L359.94 98.44L359.94 148.44L316.64 173.44L273.33 148.44L273.33 98.44zM316.64 223.44L359.94 248.44L359.94 298.44L316.64 323.44L273.33 298.44L273.33 248.44zM403.24 73.44L446.55 98.44L446.55 148.44L403.24 173.44L359.94 148.44L359.94 98.44zM619.75 -1.56L663.06 23.44L663.06 73.44L619.75 98.44L576.45 73.44L576.45 23.44zM619.75 148.44L663.06 173.44L663.06 223.44L619.75 248.44L576.45 223.44L576.45 173.44zM792.97 148.44L836.27 173.44L836.27 223.44L792.97 248.44L749.66 223.44L749.66 173.44zM922.87 223.44L966.18 248.44L966.18 298.44L922.87 323.44L879.57 298.44L879.57 248.44zM966.18 148.44L1009.48 173.44L1009.48 223.44L966.18 248.44L922.87 223.44L922.87 173.44zM1009.48 223.44L1052.78 248.44L1052.78 298.44L1009.48 323.44L966.18 298.44L966.18 248.44zM1052.78 -1.56L1096.08 23.44L1096.08 73.44L1052.78 98.44L1009.48 73.44L1009.48 23.44zM1139.38 -1.56L1182.69 23.44L1182.69 73.44L1139.38 98.44L1096.08 73.44L1096.08 23.44zM1182.69 73.44L1225.99 98.44L1225.99 148.44L1182.69 173.44L1139.38 148.44L1139.38 98.44zM1615.71 223.44L1659.02 248.44L1659.02 298.44L1615.71 323.44L1572.41 298.44L1572.41 248.44zM1659.02 -1.56L1702.32 23.44L1702.32 73.44L1659.02 98.44L1615.71 73.44L1615.71 23.44zM1702.32 73.44L1745.62 98.44L1745.62 148.44L1702.32 173.44L1659.02 148.44L1659.02 98.44zM1702.32 223.44L1745.62 248.44L1745.62 298.44L1702.32 323.44L1659.02 298.44L1659.02 248.44zM1745.62 -1.56L1788.92 23.44L1788.92 73.44L1745.62 98.44L1702.32 73.44L1702.32 23.44zM1788.92 73.44L1832.23 98.44L1832.23 148.44L1788.92 173.44L1745.62 148.44L1745.62 98.44z" stroke="rgba(6, 80, 156, 0.93)" stroke-width="2"></path></g><defs><mask id="SvgjsMask1015"><rect width="1920" height="200" fill="#ffffff"></rect></mask></defs></svg>